<?xml version="1.0" standalone="no"?>
<!DOCTYPE svg PUBLIC "-//W3C//DTD SVG 20010904//EN"
 "http://www.w3.org/TR/2001/REC-SVG-20010904/DTD/svg10.dtd">
<svg version="1.0" xmlns="http://www.w3.org/2000/svg"
 width="965.000000pt" height="1865.000000pt" viewBox="0 0 965.000000 1865.000000"
 preserveAspectRatio="xMidYMid meet">
<metadata>
Created by potrace 1.16, written by Peter Selinger 2001-2019
</metadata>
<g transform="translate(0.000000,1865.000000) scale(0.100000,-0.100000)"
fill="#000000" stroke="none">
<path d="M4059 16711 c-221 -255 -476 -573 -929 -1161 -543 -705 -818 -1041
-1132 -1381 -95 -103 -99 -110 -118 -184 -26 -101 -63 -168 -171 -311 -119
-157 -124 -167 -102 -200 27 -42 20 -107 -26 -220 -33 -81 -41 -114 -41 -163
0 -48 4 -63 16 -68 27 -10 61 10 96 57 27 36 41 46 69 48 31 3 40 -2 65 -35
21 -27 28 -48 28 -76 -1 -21 -4 -40 -7 -44 -3 -3 -27 -9 -53 -14 -63 -12 -84
-32 -84 -81 0 -32 3 -38 21 -38 35 0 58 19 84 70 18 35 36 55 64 69 25 13 61
50 101 103 35 46 74 92 88 102 l25 19 -7 -67 c-7 -59 -6 -66 10 -66 10 0 25
-7 34 -15 15 -14 25 -14 64 -4 156 39 336 -42 419 -190 26 -46 31 -51 40 -35
26 50 49 49 112 -4 63 -53 135 -64 135 -21 0 12 12 24 35 33 19 8 35 19 35 24
0 6 11 13 25 16 14 4 44 23 67 44 l41 37 -8 -45 c-9 -55 -31 -117 -51 -148
-15 -23 -19 -24 -94 -17 -56 5 -80 4 -85 -5 -9 -14 12 -30 40 -30 11 0 27 -5
35 -10 12 -7 3 -19 -43 -62 -31 -30 -57 -61 -57 -69 0 -22 36 -54 45 -39 4 6
45 36 91 66 47 29 87 61 90 69 9 23 23 8 17 -18 -3 -12 -16 -62 -30 -110 -28
-100 -26 -142 11 -176 22 -21 26 -22 52 -8 43 23 96 82 157 177 55 85 112 147
154 169 26 13 115 31 124 25 4 -2 -11 -21 -32 -43 -45 -45 -50 -80 -20 -140
l19 -37 -34 -19 c-47 -25 -70 -67 -91 -166 l-18 -84 -47 3 c-41 3 -51 0 -72
-23 -23 -25 -45 -79 -60 -147 -6 -25 -3 -28 34 -38 53 -14 86 -4 118 37 56 73
71 88 78 80 5 -4 -4 -30 -19 -57 -31 -55 -34 -75 -11 -88 13 -7 31 5 83 57 62
63 153 131 174 131 5 0 7 -12 4 -27 -3 -19 5 -48 28 -93 102 -203 155 -491
155 -841 0 -72 -7 -287 -16 -477 -23 -498 -9 -925 36 -1090 5 -19 5 -69 0
-120 -35 -340 -87 -1085 -180 -2562 -103 -1641 -152 -2327 -167 -2340 -11 -10
-155 -37 -308 -57 -141 -18 -460 -21 -1285 -12 -398 4 -419 3 -512 -18 -184
-41 -313 -125 -372 -242 -84 -165 -82 -416 6 -751 17 -63 43 -164 59 -225 16
-60 65 -287 109 -503 111 -537 164 -725 264 -938 157 -331 373 -511 691 -575
108 -22 373 -17 510 9 1084 206 2568 373 3810 427 107 5 208 19 431 61 608
113 843 142 1215 151 l256 6 47 146 c25 80 50 166 56 191 13 61 13 238 -1 314
-10 54 -7 89 25 306 52 348 53 357 86 645 30 264 76 747 105 1110 l17 200 -39
32 c-60 52 -228 130 -338 159 -82 21 -131 27 -266 31 -219 7 -262 2 -859 -102
-183 -31 -421 -58 -431 -48 -4 5 -17 96 -30 203 -37 331 -27 625 26 730 9 19
11 88 7 300 -7 403 11 768 83 1670 69 862 69 871 70 1420 0 422 -3 548 -18
695 -33 332 -38 457 -44 991 -4 375 0 745 12 1260 31 1267 13 1838 -75 2370
-156 942 -538 1537 -1200 1869 -388 194 -793 287 -1380 318 l-75 4 -66 -76z"/>
<path d="M2101 12897 c-28 -64 -61 -71 -75 -14 -3 15 -13 27 -21 27 -20 0 -20
-47 0 -94 14 -32 18 -36 43 -30 15 4 43 15 62 24 32 16 39 17 69 4 18 -8 35
-14 37 -14 2 0 4 17 4 38 0 42 -13 58 -68 86 l-32 17 -19 -44z"/>
</g>
</svg>
